<svg width="309" height="84" viewBox="0 0 309 84" fill="none" xmlns="http://www.w3.org/2000/svg">
<rect x="1.5" y="1.5" width="306" height="81" rx="21.5" fill="#F1FCFF" stroke="#7BBDFA" stroke-width="3"/>
<path d="M24.16 34.15C26.92 34.15 28.69 32.695 28.69 30.175V24.13H26.515V30.085C26.515 31.435 25.6 32.11 24.295 32.11C22.99 32.11 22.075 31.435 22.075 30.085V24.13H19.615V30.175C19.615 32.695 21.4 34.15 24.16 34.15ZM29.8679 34H32.1479V30.475C32.1479 29.065 32.8679 28.36 34.0679 28.36C35.0729 28.36 35.6729 28.825 35.6729 29.875V34H37.9529V29.365C37.9529 27.445 36.7979 26.47 35.0129 26.47C33.3329 26.47 32.4629 27.145 32.0879 28.555H32.0579L32.1479 26.59H29.8679V34ZM42.5931 34.12C45.1281 34.12 46.4631 33.205 46.4631 31.645C46.4631 31 46.1181 30.445 45.6381 30.175C45.0831 29.86 44.4381 29.77 43.5231 29.68C42.7281 29.605 42.0681 29.545 41.6931 29.455C41.2731 29.35 41.1531 29.11 41.1531 28.795C41.1531 28.285 41.6031 27.94 42.6231 27.94C43.7481 27.94 44.1081 28.345 44.1231 29.125H46.1331C46.1331 27.4 45.0231 26.47 42.5931 26.47C40.5381 26.47 38.8881 27.355 38.8881 28.96C38.8881 29.575 39.1731 30.115 39.5931 30.415C40.0431 30.73 40.8681 30.895 41.9331 30.985C42.6681 31.045 43.2681 31.105 43.6581 31.195C44.0481 31.285 44.1831 31.495 44.1831 31.765C44.1831 32.305 43.7631 32.65 42.5781 32.65C41.2731 32.65 40.9281 32.2 40.9281 31.51H38.8881C38.8881 33.01 39.9831 34.12 42.5931 34.12ZM51.2403 34.12C51.8553 34.12 52.4853 34 52.6803 33.955V32.23C52.4253 32.29 51.9603 32.335 51.6453 32.335C50.7453 32.335 50.3853 32.095 50.3853 31.33V28.36H52.7553V26.59H50.3853V24.91H48.5103L48.4053 25.945C48.3603 26.395 48.2403 26.59 47.8953 26.59H47.0103V28.36H48.1053V31.45C48.1053 33.1 48.9303 34.12 51.2403 34.12ZM56.3454 34.12C57.6954 34.12 58.5354 33.55 58.7604 32.5H58.7754C58.7754 32.95 58.7154 33.625 58.6704 34H60.9504V29.5C60.9504 27.52 59.5704 26.47 57.2154 26.47C54.9654 26.47 53.6454 27.355 53.6454 28.855C53.6454 29.005 53.6604 29.17 53.6754 29.29H55.7754C55.7604 29.14 55.7604 29.02 55.7604 28.975C55.7604 28.375 56.2554 28.015 57.1104 28.015C58.1604 28.015 58.6704 28.375 58.6704 29.275V29.77H56.2554C54.2904 29.77 53.4204 30.655 53.4204 31.87C53.4204 33.37 54.6204 34.12 56.3454 34.12ZM56.7954 32.575C55.9704 32.575 55.4754 32.275 55.4754 31.705C55.4754 31.285 55.8504 31 56.4654 31H58.6704V31.15C58.6704 32.05 57.9804 32.575 56.7954 32.575ZM62.0512 34H64.3312V32.485L65.5312 31.27L67.4662 34H70.4662L67.1662 29.815L70.2862 26.59H67.5112L64.3462 30.16H64.3312V23.605H62.0512V34ZM78.0009 30.085C78.0009 27.655 76.5459 26.47 74.4759 26.47C71.9709 26.47 70.4409 27.925 70.4409 30.37C70.4409 32.725 71.9709 34.12 74.4309 34.12C76.5459 34.12 77.9559 33.13 78.0009 31.435H75.9909C75.9309 32.155 75.3609 32.47 74.4759 32.47C73.4559 32.47 72.8409 31.945 72.7359 30.73H78.0009V30.085ZM75.9909 29.515H72.7959C72.9759 28.54 73.5159 28.12 74.4759 28.12C75.4209 28.12 75.9909 28.555 75.9909 29.395V29.515ZM82.3437 34.12C83.6937 34.12 84.5337 33.46 84.8187 32.41H84.8487C84.8037 33.205 84.7737 33.85 84.7587 34H87.0387V23.605H84.7587V27.685H84.7437C84.4137 26.92 83.6337 26.47 82.4337 26.47C80.2737 26.47 78.8637 27.97 78.8637 30.235C78.8637 32.56 80.1987 34.12 82.3437 34.12ZM82.8687 32.38C81.8187 32.38 81.1287 31.51 81.1287 30.25C81.1287 29.02 81.8337 28.21 82.8987 28.21C84.0087 28.21 84.7587 28.93 84.7587 29.995V30.355C84.7587 31.57 84.0087 32.38 82.8687 32.38ZM94.5046 34.12C95.8546 34.12 96.6946 33.55 96.9196 32.5H96.9346C96.9346 32.95 96.8746 33.625 96.8296 34H99.1096V29.5C99.1096 27.52 97.7296 26.47 95.3746 26.47C93.1246 26.47 91.8046 27.355 91.8046 28.855C91.8046 29.005 91.8196 29.17 91.8346 29.29H93.9346C93.9196 29.14 93.9196 29.02 93.9196 28.975C93.9196 28.375 94.4146 28.015 95.2696 28.015C96.3196 28.015 96.8296 28.375 96.8296 29.275V29.77H94.4146C92.4496 29.77 91.5796 30.655 91.5796 31.87C91.5796 33.37 92.7796 34.12 94.5046 34.12ZM94.9546 32.575C94.1296 32.575 93.6346 32.275 93.6346 31.705C93.6346 31.285 94.0096 31 94.6246 31H96.8296V31.15C96.8296 32.05 96.1396 32.575 94.9546 32.575ZM100.21 34H102.49V23.605H100.21V34ZM103.727 25.81H106.007V23.995H103.727V25.81ZM103.727 34H106.007V26.59H103.727V34ZM114.637 30.085C114.637 27.655 113.182 26.47 111.112 26.47C108.607 26.47 107.077 27.925 107.077 30.37C107.077 32.725 108.607 34.12 111.067 34.12C113.182 34.12 114.592 33.13 114.637 31.435H112.627C112.567 32.155 111.997 32.47 111.112 32.47C110.092 32.47 109.477 31.945 109.372 30.73H114.637V30.085ZM112.627 29.515H109.432C109.612 28.54 110.152 28.12 111.112 28.12C112.057 28.12 112.627 28.555 112.627 29.395V29.515ZM115.634 34H117.914V30.475C117.914 29.065 118.634 28.36 119.834 28.36C120.839 28.36 121.439 28.825 121.439 29.875V34H123.719V29.365C123.719 27.445 122.564 26.47 120.779 26.47C119.099 26.47 118.229 27.145 117.854 28.555H117.824L117.914 26.59H115.634V34ZM128.36 34.12C130.895 34.12 132.23 33.205 132.23 31.645C132.23 31 131.885 30.445 131.405 30.175C130.85 29.86 130.205 29.77 129.29 29.68C128.495 29.605 127.835 29.545 127.46 29.455C127.04 29.35 126.92 29.11 126.92 28.795C126.92 28.285 127.37 27.94 128.39 27.94C129.515 27.94 129.875 28.345 129.89 29.125H131.9C131.9 27.4 130.79 26.47 128.36 26.47C126.305 26.47 124.655 27.355 124.655 28.96C124.655 29.575 124.94 30.115 125.36 30.415C125.81 30.73 126.635 30.895 127.7 30.985C128.435 31.045 129.035 31.105 129.425 31.195C129.815 31.285 129.95 31.495 129.95 31.765C129.95 32.305 129.53 32.65 128.345 32.65C127.04 32.65 126.695 32.2 126.695 31.51H124.655C124.655 33.01 125.75 34.12 128.36 34.12ZM140.329 34.12C142.519 34.12 144.034 33.01 144.034 30.88H142.024C142.009 31.825 141.424 32.38 140.449 32.38C139.444 32.38 138.844 31.6 138.844 30.295C138.844 28.945 139.429 28.21 140.494 28.21C141.424 28.21 141.994 28.78 142.009 29.74H144.019C144.019 27.685 142.594 26.47 140.419 26.47C138.139 26.47 136.564 27.895 136.564 30.31C136.564 32.71 138.109 34.12 140.329 34.12ZM147.488 34.12C148.838 34.12 149.678 33.55 149.903 32.5H149.918C149.918 32.95 149.858 33.625 149.813 34H152.093V29.5C152.093 27.52 150.713 26.47 148.358 26.47C146.108 26.47 144.788 27.355 144.788 28.855C144.788 29.005 144.803 29.17 144.818 29.29H146.918C146.903 29.14 146.903 29.02 146.903 28.975C146.903 28.375 147.398 28.015 148.253 28.015C149.303 28.015 149.813 28.375 149.813 29.275V29.77H147.398C145.433 29.77 144.563 30.655 144.563 31.87C144.563 33.37 145.763 34.12 147.488 34.12ZM147.938 32.575C147.113 32.575 146.618 32.275 146.618 31.705C146.618 31.285 146.993 31 147.608 31H149.813V31.15C149.813 32.05 149.123 32.575 147.938 32.575ZM153.164 34H155.444V30.475C155.444 29.065 156.164 28.36 157.364 28.36C158.369 28.36 158.969 28.825 158.969 29.875V34H161.249V29.365C161.249 27.445 160.094 26.47 158.309 26.47C156.629 26.47 155.759 27.145 155.384 28.555H155.354L155.444 26.59H153.164V34ZM173.201 30.085C173.201 27.655 171.746 26.47 169.676 26.47C167.171 26.47 165.641 27.925 165.641 30.37C165.641 32.725 167.171 34.12 169.631 34.12C171.746 34.12 173.156 33.13 173.201 31.435H171.191C171.131 32.155 170.561 32.47 169.676 32.47C168.656 32.47 168.041 31.945 167.936 30.73H173.201V30.085ZM171.191 29.515H167.996C168.176 28.54 168.716 28.12 169.676 28.12C170.621 28.12 171.191 28.555 171.191 29.395V29.515ZM177.034 34.12C178.384 34.12 179.224 33.55 179.449 32.5H179.464C179.464 32.95 179.404 33.625 179.359 34H181.639V29.5C181.639 27.52 180.259 26.47 177.904 26.47C175.654 26.47 174.334 27.355 174.334 28.855C174.334 29.005 174.349 29.17 174.364 29.29H176.464C176.449 29.14 176.449 29.02 176.449 28.975C176.449 28.375 176.944 28.015 177.799 28.015C178.849 28.015 179.359 28.375 179.359 29.275V29.77H176.944C174.979 29.77 174.109 30.655 174.109 31.87C174.109 33.37 175.309 34.12 177.034 34.12ZM177.484 32.575C176.659 32.575 176.164 32.275 176.164 31.705C176.164 31.285 176.539 31 177.154 31H179.359V31.15C179.359 32.05 178.669 32.575 177.484 32.575ZM182.71 34H184.99V30.805C184.99 29.155 185.665 28.36 186.64 28.36C187.36 28.36 187.795 28.795 187.795 29.875C187.795 30.1 187.78 30.475 187.75 30.835H189.82C189.85 30.445 189.895 29.785 189.895 29.365C189.895 27.445 189.01 26.47 187.495 26.47C186.04 26.47 185.245 27.295 184.93 28.705H184.9L184.99 26.59H182.71V34ZM190.869 34H193.149V30.475C193.149 29.065 193.869 28.36 195.069 28.36C196.074 28.36 196.674 28.825 196.674 29.875V34H198.954V29.365C198.954 27.445 197.799 26.47 196.014 26.47C194.334 26.47 193.464 27.145 193.089 28.555H193.059L193.149 26.59H190.869V34ZM206.526 34.12C207.936 34.12 208.941 33.49 209.271 32.065H209.301C209.286 32.875 209.241 33.49 209.196 34H211.476V26.59H209.196V29.8C209.196 31.42 208.461 32.23 207.231 32.23C206.256 32.23 205.686 31.75 205.686 30.715V26.59H203.406V30.985C203.406 33.16 204.606 34.12 206.526 34.12ZM212.666 36.97H214.946V34.165C214.946 33.895 214.901 33.16 214.871 32.665H214.886C215.216 33.565 216.056 34.12 217.406 34.12C219.491 34.12 220.841 32.53 220.841 30.13C220.841 27.94 219.491 26.47 217.421 26.47C216.146 26.47 215.201 27.085 214.916 28.105H214.901L214.946 26.59H212.666V36.97ZM216.866 32.38C215.711 32.38 214.946 31.675 214.946 30.61V30.28C214.946 29.035 215.711 28.21 216.851 28.21C217.886 28.21 218.576 29.02 218.576 30.22C218.576 31.51 217.886 32.38 216.866 32.38ZM229.072 34.12C229.687 34.12 230.317 34 230.512 33.955V32.23C230.257 32.29 229.792 32.335 229.477 32.335C228.577 32.335 228.217 32.095 228.217 31.33V28.36H230.587V26.59H228.217V24.91H226.342L226.237 25.945C226.192 26.395 226.072 26.59 225.727 26.59H224.842V28.36H225.937V31.45C225.937 33.1 226.762 34.12 229.072 34.12ZM235.125 34.12C237.57 34.12 239.16 32.71 239.16 30.31C239.16 27.895 237.57 26.47 235.125 26.47C232.68 26.47 231.09 27.895 231.09 30.31C231.09 32.71 232.68 34.12 235.125 34.12ZM235.125 32.38C234.015 32.38 233.37 31.615 233.37 30.31C233.37 28.99 234.015 28.21 235.125 28.21C236.235 28.21 236.88 28.99 236.88 30.31C236.88 31.615 236.235 32.38 235.125 32.38ZM248.193 34H250.608V32.065H251.988V30.16H250.608V24.13H248.073L243.348 30.145V32.065H248.193V34ZM245.538 30.16V30.13L248.178 26.74H248.193V30.16H245.538ZM256.616 34.135C259.511 34.135 260.771 32.08 260.771 29.02C260.771 25.885 259.376 23.995 256.616 23.995C253.871 23.995 252.491 25.885 252.491 29.02C252.491 32.08 253.751 34.135 256.616 34.135ZM256.616 32.2C255.416 32.2 254.876 31.045 254.876 29.035C254.876 27.01 255.476 25.93 256.616 25.93C257.771 25.93 258.386 27.01 258.386 29.035C258.386 31.045 257.831 32.2 256.616 32.2ZM265.668 34.135C268.563 34.135 269.823 32.08 269.823 29.02C269.823 25.885 268.428 23.995 265.668 23.995C262.923 23.995 261.543 25.885 261.543 29.02C261.543 32.08 262.803 34.135 265.668 34.135ZM265.668 32.2C264.468 32.2 263.928 31.045 263.928 29.035C263.928 27.01 264.528 25.93 265.668 25.93C266.823 25.93 267.438 27.01 267.438 29.035C267.438 31.045 266.883 32.2 265.668 32.2ZM274.721 34.135C277.616 34.135 278.876 32.08 278.876 29.02C278.876 25.885 277.481 23.995 274.721 23.995C271.976 23.995 270.596 25.885 270.596 29.02C270.596 32.08 271.856 34.135 274.721 34.135ZM274.721 32.2C273.521 32.2 272.981 31.045 272.981 29.035C272.981 27.01 273.581 25.93 274.721 25.93C275.876 25.93 276.491 27.01 276.491 29.035C276.491 31.045 275.936 32.2 274.721 32.2ZM23.14 56H25.6V52.22L29.5 46.13H26.755L24.625 50.03H24.58L22.42 46.13H19.255L23.14 52.22V56ZM34.4569 56.15C37.4419 56.15 39.7519 54.245 39.7519 51.02C39.7519 47.855 37.4419 45.98 34.4569 45.98C31.4719 45.98 29.1619 47.855 29.1619 51.02C29.1619 54.245 31.4719 56.15 34.4569 56.15ZM34.4569 54.215C32.8969 54.215 31.7119 53.03 31.7119 51.035C31.7119 49.07 32.8969 47.915 34.4569 47.915C36.0169 47.915 37.2019 49.07 37.2019 51.035C37.2019 53.03 36.0169 54.215 34.4569 54.215ZM40.8713 56H47.8313V54.065H43.3313V46.13H40.8713V56ZM48.7961 56H55.7561V54.065H51.2561V46.13H48.7961V56ZM64.1159 56H66.9809L63.1709 46.13H60.1109L56.3009 56H58.8209L59.4959 53.99H63.4409L64.1159 56ZM60.0059 52.46L61.4459 48.14H61.4759L62.9309 52.46H60.0059ZM67.9123 56H70.3723V52.325H72.7573C73.6873 52.325 74.0173 52.715 74.0173 53.615V56H76.4773V53.54C76.4773 52.43 76.0423 51.65 75.0673 51.425V51.395C75.9973 51.125 76.5373 50.33 76.5373 49.07C76.5373 47.21 75.1273 46.13 72.5173 46.13H67.9123V56ZM70.3723 50.84V48.065H72.5023C73.6423 48.065 74.1823 48.59 74.1823 49.46C74.1823 50.375 73.6573 50.84 72.6223 50.84H70.3723ZM87.4587 56.12C88.8087 56.12 89.6487 55.55 89.8737 54.5H89.8887C89.8887 54.95 89.8287 55.625 89.7837 56H92.0637V51.5C92.0637 49.52 90.6837 48.47 88.3287 48.47C86.0787 48.47 84.7587 49.355 84.7587 50.855C84.7587 51.005 84.7737 51.17 84.7887 51.29H86.8887C86.8737 51.14 86.8737 51.02 86.8737 50.975C86.8737 50.375 87.3687 50.015 88.2237 50.015C89.2737 50.015 89.7837 50.375 89.7837 51.275V51.77H87.3687C85.4037 51.77 84.5337 52.655 84.5337 53.87C84.5337 55.37 85.7337 56.12 87.4587 56.12ZM87.9087 54.575C87.0837 54.575 86.5887 54.275 86.5887 53.705C86.5887 53.285 86.9637 53 87.5787 53H89.7837V53.15C89.7837 54.05 89.0937 54.575 87.9087 54.575ZM99.9365 56.12C101.286 56.12 102.126 55.46 102.411 54.41H102.441C102.396 55.205 102.366 55.85 102.351 56H104.631V45.605H102.351V49.685H102.336C102.006 48.92 101.226 48.47 100.026 48.47C97.8665 48.47 96.4565 49.97 96.4565 52.235C96.4565 54.56 97.7915 56.12 99.9365 56.12ZM100.461 54.38C99.4115 54.38 98.7215 53.51 98.7215 52.25C98.7215 51.02 99.4265 50.21 100.491 50.21C101.601 50.21 102.351 50.93 102.351 51.995V52.355C102.351 53.57 101.601 54.38 100.461 54.38ZM108.64 56.12C109.99 56.12 110.83 55.55 111.055 54.5H111.07C111.07 54.95 111.01 55.625 110.965 56H113.245V51.5C113.245 49.52 111.865 48.47 109.51 48.47C107.26 48.47 105.94 49.355 105.94 50.855C105.94 51.005 105.955 51.17 105.97 51.29H108.07C108.055 51.14 108.055 51.02 108.055 50.975C108.055 50.375 108.55 50.015 109.405 50.015C110.455 50.015 110.965 50.375 110.965 51.275V51.77H108.55C106.585 51.77 105.715 52.655 105.715 53.87C105.715 55.37 106.915 56.12 108.64 56.12ZM109.09 54.575C108.265 54.575 107.77 54.275 107.77 53.705C107.77 53.285 108.145 53 108.76 53H110.965V53.15C110.965 54.05 110.275 54.575 109.09 54.575ZM116.186 59.15C117.716 59.15 118.631 58.31 119.381 56.18L122.066 48.59H119.876L118.151 53.69H118.121L116.216 48.59H113.606L116.681 56H117.176C116.801 57.02 116.456 57.38 115.706 57.38C115.331 57.38 114.986 57.32 114.761 57.26V58.955C114.956 59.03 115.436 59.15 116.186 59.15ZM122.22 56H124.44V53.75H122.22V56ZM134.594 56.15C137.579 56.15 139.889 54.245 139.889 51.02C139.889 47.855 137.579 45.98 134.594 45.98C131.609 45.98 129.299 47.855 129.299 51.02C129.299 54.245 131.609 56.15 134.594 56.15ZM134.594 54.215C133.034 54.215 131.849 53.03 131.849 51.035C131.849 49.07 133.034 47.915 134.594 47.915C136.154 47.915 137.339 49.07 137.339 51.035C137.339 53.03 136.154 54.215 134.594 54.215ZM141.533 56H143.813V50.36H146.993V56H149.273V50.36H151.628V48.59H149.273V48.035C149.273 47.375 149.633 47.03 150.383 47.03C150.908 47.03 151.313 47.15 151.508 47.21V45.53C151.313 45.455 150.668 45.29 149.918 45.29C148.238 45.29 146.993 46.16 146.993 47.87V48.59H143.813V48.035C143.813 47.375 144.173 47.03 144.923 47.03C145.448 47.03 145.853 47.15 146.048 47.21V45.53C145.853 45.455 145.208 45.29 144.458 45.29C142.778 45.29 141.533 46.16 141.533 47.87V48.59H140.438V50.36H141.533V56ZM159.446 52.085C159.446 49.655 157.991 48.47 155.921 48.47C153.416 48.47 151.886 49.925 151.886 52.37C151.886 54.725 153.416 56.12 155.876 56.12C157.991 56.12 159.401 55.13 159.446 53.435H157.436C157.376 54.155 156.806 54.47 155.921 54.47C154.901 54.47 154.286 53.945 154.181 52.73H159.446V52.085ZM157.436 51.515H154.241C154.421 50.54 154.961 50.12 155.921 50.12C156.866 50.12 157.436 50.555 157.436 51.395V51.515ZM160.444 56H162.724V52.805C162.724 51.155 163.399 50.36 164.374 50.36C165.094 50.36 165.529 50.795 165.529 51.875C165.529 52.1 165.514 52.475 165.484 52.835H167.554C167.584 52.445 167.629 51.785 167.629 51.365C167.629 49.445 166.744 48.47 165.229 48.47C163.774 48.47 162.979 49.295 162.664 50.705H162.634L162.724 48.59H160.444V56ZM179.485 52.085C179.485 49.655 178.03 48.47 175.96 48.47C173.455 48.47 171.925 49.925 171.925 52.37C171.925 54.725 173.455 56.12 175.915 56.12C178.03 56.12 179.44 55.13 179.485 53.435H177.475C177.415 54.155 176.845 54.47 175.96 54.47C174.94 54.47 174.325 53.945 174.22 52.73H179.485V52.085ZM177.475 51.515H174.28C174.46 50.54 175 50.12 175.96 50.12C176.905 50.12 177.475 50.555 177.475 51.395V51.515ZM179.568 56H182.238L183.588 53.555L185.013 56H187.863L185.148 52.19L187.728 48.59H185.223L183.918 50.945L182.538 48.59H179.703L182.238 52.19L179.568 56ZM188.716 58.97H190.996V56.165C190.996 55.895 190.951 55.16 190.921 54.665H190.936C191.266 55.565 192.106 56.12 193.456 56.12C195.541 56.12 196.891 54.53 196.891 52.13C196.891 49.94 195.541 48.47 193.471 48.47C192.196 48.47 191.251 49.085 190.966 50.105H190.951L190.996 48.59H188.716V58.97ZM192.916 54.38C191.761 54.38 190.996 53.675 190.996 52.61V52.28C190.996 51.035 191.761 50.21 192.901 50.21C193.936 50.21 194.626 51.02 194.626 52.22C194.626 53.51 193.936 54.38 192.916 54.38ZM197.96 47.81H200.24V45.995H197.96V47.81ZM197.96 56H200.24V48.59H197.96V56ZM201.445 56H203.725V52.805C203.725 51.155 204.4 50.36 205.375 50.36C206.095 50.36 206.53 50.795 206.53 51.875C206.53 52.1 206.515 52.475 206.485 52.835H208.555C208.585 52.445 208.63 51.785 208.63 51.365C208.63 49.445 207.745 48.47 206.23 48.47C204.775 48.47 203.98 49.295 203.665 50.705H203.635L203.725 48.59H201.445V56ZM217.029 52.085C217.029 49.655 215.574 48.47 213.504 48.47C210.999 48.47 209.469 49.925 209.469 52.37C209.469 54.725 210.999 56.12 213.459 56.12C215.574 56.12 216.984 55.13 217.029 53.435H215.019C214.959 54.155 214.389 54.47 213.504 54.47C212.484 54.47 211.869 53.945 211.764 52.73H217.029V52.085ZM215.019 51.515H211.824C212.004 50.54 212.544 50.12 213.504 50.12C214.449 50.12 215.019 50.555 215.019 51.395V51.515ZM221.597 56.12C224.132 56.12 225.467 55.205 225.467 53.645C225.467 53 225.122 52.445 224.642 52.175C224.087 51.86 223.442 51.77 222.527 51.68C221.732 51.605 221.072 51.545 220.697 51.455C220.277 51.35 220.157 51.11 220.157 50.795C220.157 50.285 220.607 49.94 221.627 49.94C222.752 49.94 223.112 50.345 223.127 51.125H225.137C225.137 49.4 224.027 48.47 221.597 48.47C219.542 48.47 217.892 49.355 217.892 50.96C217.892 51.575 218.177 52.115 218.597 52.415C219.047 52.73 219.872 52.895 220.937 52.985C221.672 53.045 222.272 53.105 222.662 53.195C223.052 53.285 223.187 53.495 223.187 53.765C223.187 54.305 222.767 54.65 221.582 54.65C220.277 54.65 219.932 54.2 219.932 53.51H217.892C217.892 55.01 218.987 56.12 221.597 56.12ZM229.996 47.81H232.276V45.995H229.996V47.81ZM229.996 56H232.276V48.59H229.996V56ZM233.481 56H235.761V52.475C235.761 51.065 236.481 50.36 237.681 50.36C238.686 50.36 239.286 50.825 239.286 51.875V56H241.566V51.365C241.566 49.445 240.411 48.47 238.626 48.47C236.946 48.47 236.076 49.145 235.701 50.555H235.671L235.761 48.59H233.481V56ZM246.138 56H253.938V54.08H248.868C248.868 53.72 248.973 53.48 250.518 52.775C252.933 51.68 253.728 50.675 253.728 49.1C253.728 47.33 252.423 45.995 250.008 45.995C247.383 45.995 246.198 47.48 246.198 49.565C246.198 49.955 246.228 50.33 246.258 50.555H248.388C248.343 50.18 248.343 49.895 248.343 49.73C248.343 48.53 248.928 47.93 249.933 47.93C250.818 47.93 251.328 48.44 251.328 49.31C251.328 50.21 250.803 50.75 248.898 51.65C246.378 52.85 246.138 53.615 246.138 56ZM259.721 56H262.136V54.065H263.516V52.16H262.136V46.13H259.601L254.876 52.145V54.065H259.721V56ZM257.066 52.16V52.13L259.706 48.74H259.721V52.16H257.066ZM267.686 56H269.966V52.475C269.966 51.065 270.686 50.36 271.886 50.36C272.906 50.36 273.491 50.825 273.491 51.875V56H275.771V51.365C275.771 49.445 274.616 48.47 272.831 48.47C271.151 48.47 270.281 49.145 269.906 50.555H269.876C269.921 50 269.966 49.16 269.966 48.875V45.605H267.686V56ZM276.841 56H279.121V52.805C279.121 51.155 279.796 50.36 280.771 50.36C281.491 50.36 281.926 50.795 281.926 51.875C281.926 52.1 281.911 52.475 281.881 52.835H283.951C283.981 52.445 284.026 51.785 284.026 51.365C284.026 49.445 283.141 48.47 281.626 48.47C280.171 48.47 279.376 49.295 279.061 50.705H279.031L279.121 48.59H276.841V56ZM284.921 56H287.141V53.75H284.921V56Z" fill="#373131"/>
</svg>
