<svg width="302" height="207" viewBox="0 0 302 207" fill="none" xmlns="http://www.w3.org/2000/svg">
<path d="M23 1.5C11.1259 1.5 1.5 11.1259 1.5 23V180C1.5 191.874 11.1259 201.5 23 201.5H279C290.874 201.5 300.5 191.874 300.5 180V23C300.5 11.1259 290.874 1.5 279 1.5H23Z" fill="#1E1E3D" stroke="#5D64AE" stroke-width="3"/>
<path opacity="0.5" d="M93.5147 88H95.2097L95.1947 79.63H95.2097L100.475 88H102.605V78.13H100.91L100.94 85.63H100.91L96.2147 78.13H93.5147V88ZM108.055 88.12C110.425 88.12 111.94 86.665 111.94 84.31C111.94 81.94 110.425 80.47 108.055 80.47C105.7 80.47 104.185 81.94 104.185 84.31C104.185 86.665 105.7 88.12 108.055 88.12ZM108.055 86.74C106.69 86.74 105.865 85.81 105.865 84.31C105.865 82.795 106.69 81.85 108.055 81.85C109.42 81.85 110.26 82.795 110.26 84.31C110.26 85.81 109.42 86.74 108.055 86.74ZM119.442 88.12C121.077 88.12 121.962 87.46 122.202 86.365H122.217C122.217 86.965 122.172 87.64 122.142 88H123.822V83.485C123.822 81.535 122.502 80.47 120.252 80.47C118.137 80.47 116.847 81.355 116.847 82.84C116.847 82.975 116.862 83.17 116.877 83.275H118.422C118.407 83.155 118.407 83.035 118.407 82.99C118.407 82.165 119.052 81.73 120.192 81.73C121.497 81.73 122.142 82.225 122.142 83.335V83.86H119.397C117.417 83.86 116.622 84.745 116.622 85.87C116.622 87.31 117.747 88.12 119.442 88.12ZM119.787 86.86C118.767 86.86 118.167 86.47 118.167 85.795C118.167 85.21 118.587 84.88 119.547 84.88H122.142V85.015C122.142 86.155 121.242 86.86 119.787 86.86ZM125.476 88H127.156V77.605H125.476V88ZM128.948 79.72H130.673V78.07H128.948V79.72ZM128.963 88H130.643V80.59H128.963V88ZM139.423 84.025C139.423 81.715 138.088 80.47 135.988 80.47C133.648 80.47 132.178 81.955 132.178 84.355C132.178 86.68 133.648 88.12 135.988 88.12C138.013 88.12 139.363 87.115 139.423 85.465H137.908C137.833 86.335 137.098 86.815 136.018 86.815C134.758 86.815 133.963 86.05 133.873 84.625H139.423V84.025ZM137.908 83.605H133.918C134.113 82.375 134.848 81.775 136.003 81.775C137.218 81.775 137.908 82.39 137.908 83.5V83.605ZM140.885 88H142.565V84.415C142.565 82.795 143.495 81.91 144.965 81.91C146.3 81.91 146.96 82.57 146.96 83.74V88H148.64V83.365C148.64 81.535 147.485 80.47 145.61 80.47C143.885 80.47 142.925 81.235 142.52 82.57H142.505L142.565 80.59H140.885V88ZM153.485 88.12C155.855 88.12 157.115 87.235 157.115 85.735C157.115 85.135 156.83 84.565 156.335 84.295C155.81 83.995 155.21 83.89 154.16 83.785C153.26 83.695 152.555 83.62 152.195 83.5C151.76 83.35 151.685 83.05 151.685 82.735C151.685 82.105 152.345 81.685 153.515 81.685C154.745 81.685 155.27 82.15 155.285 83.11H156.8C156.8 81.43 155.78 80.47 153.47 80.47C151.46 80.47 150.02 81.37 150.02 82.855C150.02 83.425 150.26 83.965 150.665 84.265C151.115 84.595 151.895 84.745 153.05 84.85C153.875 84.925 154.58 85 154.94 85.135C155.33 85.27 155.435 85.525 155.435 85.81C155.435 86.485 154.835 86.905 153.47 86.905C152.03 86.905 151.535 86.38 151.535 85.525H150.02C150.02 86.98 150.935 88.12 153.485 88.12ZM165.263 88.12C167.633 88.12 168.893 87.235 168.893 85.735C168.893 85.135 168.608 84.565 168.113 84.295C167.588 83.995 166.988 83.89 165.938 83.785C165.038 83.695 164.333 83.62 163.973 83.5C163.538 83.35 163.463 83.05 163.463 82.735C163.463 82.105 164.123 81.685 165.293 81.685C166.523 81.685 167.048 82.15 167.063 83.11H168.578C168.578 81.43 167.558 80.47 165.248 80.47C163.238 80.47 161.798 81.37 161.798 82.855C161.798 83.425 162.038 83.965 162.443 84.265C162.893 84.595 163.673 84.745 164.828 84.85C165.653 84.925 166.358 85 166.718 85.135C167.108 85.27 167.213 85.525 167.213 85.81C167.213 86.485 166.613 86.905 165.248 86.905C163.808 86.905 163.313 86.38 163.313 85.525H161.798C161.798 86.98 162.713 88.12 165.263 88.12ZM173.643 88.09C174.258 88.09 174.768 87.985 174.993 87.91V86.575C174.783 86.635 174.303 86.71 173.883 86.71C172.863 86.71 172.503 86.23 172.503 85.27V81.955H175.053V80.59H172.503V78.91H171.108L171.033 80.02C170.988 80.44 170.883 80.59 170.598 80.59H169.653V81.955H170.823V85.36C170.823 86.995 171.618 88.09 173.643 88.09ZM178.798 88.12C180.433 88.12 181.318 87.46 181.558 86.365H181.573C181.573 86.965 181.528 87.64 181.498 88H183.178V83.485C183.178 81.535 181.858 80.47 179.608 80.47C177.493 80.47 176.203 81.355 176.203 82.84C176.203 82.975 176.218 83.17 176.233 83.275H177.778C177.763 83.155 177.763 83.035 177.763 82.99C177.763 82.165 178.408 81.73 179.548 81.73C180.853 81.73 181.498 82.225 181.498 83.335V83.86H178.753C176.773 83.86 175.978 84.745 175.978 85.87C175.978 87.31 177.103 88.12 178.798 88.12ZM179.143 86.86C178.123 86.86 177.523 86.47 177.523 85.795C177.523 85.21 177.943 84.88 178.903 84.88H181.498V85.015C181.498 86.155 180.598 86.86 179.143 86.86ZM184.831 88H186.511V86.245L187.996 84.88L190.606 88H192.886L189.226 83.815L192.691 80.59H190.516L186.526 84.475H186.511V77.605H184.831V88ZM200.464 84.025C200.464 81.715 199.129 80.47 197.029 80.47C194.689 80.47 193.219 81.955 193.219 84.355C193.219 86.68 194.689 88.12 197.029 88.12C199.054 88.12 200.404 87.115 200.464 85.465H198.949C198.874 86.335 198.139 86.815 197.059 86.815C195.799 86.815 195.004 86.05 194.914 84.625H200.464V84.025ZM198.949 83.605H194.959C195.154 82.375 195.889 81.775 197.044 81.775C198.259 81.775 198.949 82.39 198.949 83.5V83.605ZM205.195 88.12C206.71 88.12 207.64 87.37 207.925 86.2H207.955C207.925 86.92 207.91 87.565 207.88 88H209.56V77.605H207.88V81.895H207.865C207.565 81.025 206.695 80.47 205.3 80.47C203.095 80.47 201.7 82.015 201.7 84.25C201.7 86.56 203.05 88.12 205.195 88.12ZM205.54 86.74C204.22 86.74 203.365 85.72 203.365 84.25C203.365 82.84 204.235 81.85 205.57 81.85C206.965 81.85 207.88 82.69 207.88 84.01V84.37C207.88 85.81 206.95 86.74 205.54 86.74Z" fill="#A9AFEF"/>
<path d="M32.785 36.15C36.145 36.15 37.075 34.665 37.075 33.075C37.075 32.16 36.685 31.47 36.01 31.125C35.395 30.795 34.435 30.63 33.4 30.465C32.545 30.345 31.435 30.165 31 29.955C30.61 29.775 30.415 29.445 30.415 28.89C30.415 27.99 31.3 27.375 32.785 27.375C34.33 27.375 35.125 28.065 35.125 29.52H36.745C36.745 27.27 35.68 25.98 32.755 25.98C30.175 25.98 28.63 27.24 28.63 29.04C28.63 29.97 29.005 30.645 29.605 31.02C30.145 31.365 31.195 31.59 32.185 31.725C33.04 31.845 34.105 31.98 34.6 32.175C35.065 32.34 35.29 32.655 35.29 33.195C35.29 34.005 34.78 34.755 32.77 34.755C30.88 34.755 30.28 33.885 30.28 32.625H28.66C28.66 34.425 29.515 36.15 32.785 36.15ZM41.8519 36.09C42.4669 36.09 42.9769 35.985 43.2019 35.91V34.575C42.9919 34.635 42.5119 34.71 42.0919 34.71C41.0719 34.71 40.7119 34.23 40.7119 33.27V29.955H43.2619V28.59H40.7119V26.91H39.3169L39.2419 28.02C39.1969 28.44 39.0919 28.59 38.8069 28.59H37.8619V29.955H39.0319V33.36C39.0319 34.995 39.8269 36.09 41.8519 36.09ZM47.0066 36.12C48.6416 36.12 49.5266 35.46 49.7666 34.365H49.7816C49.7816 34.965 49.7366 35.64 49.7066 36H51.3866V31.485C51.3866 29.535 50.0666 28.47 47.8166 28.47C45.7016 28.47 44.4116 29.355 44.4116 30.84C44.4116 30.975 44.4266 31.17 44.4416 31.275H45.9866C45.9716 31.155 45.9716 31.035 45.9716 30.99C45.9716 30.165 46.6166 29.73 47.7566 29.73C49.0616 29.73 49.7066 30.225 49.7066 31.335V31.86H46.9616C44.9816 31.86 44.1866 32.745 44.1866 33.87C44.1866 35.31 45.3116 36.12 47.0066 36.12ZM47.3516 34.86C46.3316 34.86 45.7316 34.47 45.7316 33.795C45.7316 33.21 46.1516 32.88 47.1116 32.88H49.7066V33.015C49.7066 34.155 48.8066 34.86 47.3516 34.86ZM53.0403 36H54.7203V34.245L56.2053 32.88L58.8153 36H61.0953L57.4353 31.815L60.9003 28.59H58.7253L54.7353 32.475H54.7203V25.605H53.0403V36ZM68.6725 32.025C68.6725 29.715 67.3375 28.47 65.2375 28.47C62.8975 28.47 61.4275 29.955 61.4275 32.355C61.4275 34.68 62.8975 36.12 65.2375 36.12C67.2625 36.12 68.6125 35.115 68.6725 33.465H67.1575C67.0825 34.335 66.3475 34.815 65.2675 34.815C64.0075 34.815 63.2125 34.05 63.1225 32.625H68.6725V32.025ZM67.1575 31.605H63.1675C63.3625 30.375 64.0975 29.775 65.2525 29.775C66.4675 29.775 67.1575 30.39 67.1575 31.5V31.605ZM73.4039 36.12C74.9189 36.12 75.8489 35.37 76.1339 34.2H76.1639C76.1339 34.92 76.1189 35.565 76.0889 36H77.7689V25.605H76.0889V29.895H76.0739C75.7739 29.025 74.9039 28.47 73.5089 28.47C71.3039 28.47 69.9089 30.015 69.9089 32.25C69.9089 34.56 71.2589 36.12 73.4039 36.12ZM73.7489 34.74C72.4289 34.74 71.5739 33.72 71.5739 32.25C71.5739 30.84 72.4439 29.85 73.7789 29.85C75.1739 29.85 76.0889 30.69 76.0889 32.01V32.37C76.0889 33.81 75.1589 34.74 73.7489 34.74ZM85.5613 36.12C87.1963 36.12 88.0813 35.46 88.3213 34.365H88.3363C88.3363 34.965 88.2913 35.64 88.2613 36H89.9413V31.485C89.9413 29.535 88.6213 28.47 86.3713 28.47C84.2563 28.47 82.9663 29.355 82.9663 30.84C82.9663 30.975 82.9813 31.17 82.9963 31.275H84.5413C84.5263 31.155 84.5263 31.035 84.5263 30.99C84.5263 30.165 85.1713 29.73 86.3113 29.73C87.6163 29.73 88.2613 30.225 88.2613 31.335V31.86H85.5163C83.5363 31.86 82.7413 32.745 82.7413 33.87C82.7413 35.31 83.8663 36.12 85.5613 36.12ZM85.9063 34.86C84.8863 34.86 84.2863 34.47 84.2863 33.795C84.2863 33.21 84.7063 32.88 85.6663 32.88H88.2613V33.015C88.2613 34.155 87.3613 34.86 85.9063 34.86ZM96.695 34.83H94.295C93.755 34.83 93.455 34.575 93.455 34.155C93.455 33.9 93.545 33.69 93.635 33.585C94.025 33.69 94.46 33.75 94.94 33.75C96.98 33.75 98.24 32.745 98.24 31.11C98.24 30.555 98.09 30.06 97.805 29.67C97.715 29.385 97.64 29.13 97.64 28.92C97.64 28.515 97.88 28.305 98.375 28.305C98.585 28.305 98.75 28.335 98.87 28.38V27.195C98.69 27.15 98.48 27.12 98.12 27.12C97.235 27.12 96.665 27.495 96.665 28.095C96.665 28.41 96.8 28.695 97.025 28.935L97.01 28.95C96.47 28.635 95.78 28.47 94.94 28.47C92.9 28.47 91.64 29.49 91.64 31.11C91.64 32.04 92.045 32.775 92.78 33.225V33.255C92.375 33.45 92.09 33.885 92.09 34.515C92.09 35.04 92.315 35.445 92.735 35.73V35.745C91.85 35.79 91.295 36.345 91.295 37.095C91.295 38.43 92.795 39.195 95.3 39.195C97.745 39.195 99.2 38.265 99.2 36.705C99.2 35.52 98.285 34.83 96.695 34.83ZM94.94 29.67C95.99 29.67 96.635 30.225 96.635 31.11C96.635 31.995 95.99 32.55 94.94 32.55C93.89 32.55 93.245 31.995 93.245 31.11C93.245 30.225 93.89 29.67 94.94 29.67ZM95.285 38.01C93.86 38.01 92.96 37.665 92.96 36.96C92.96 36.39 93.5 36.135 94.34 36.135H96.35C97.145 36.135 97.52 36.405 97.52 36.9C97.52 37.56 96.86 38.01 95.285 38.01ZM107.125 32.025C107.125 29.715 105.79 28.47 103.69 28.47C101.35 28.47 99.8796 29.955 99.8796 32.355C99.8796 34.68 101.35 36.12 103.69 36.12C105.715 36.12 107.065 35.115 107.125 33.465H105.61C105.535 34.335 104.8 34.815 103.72 34.815C102.46 34.815 101.665 34.05 101.575 32.625H107.125V32.025ZM105.61 31.605H101.62C101.815 30.375 102.55 29.775 103.705 29.775C104.92 29.775 105.61 30.39 105.61 31.5V31.605ZM108.586 36H110.266V32.415C110.266 30.795 111.196 29.91 112.666 29.91C114.001 29.91 114.661 30.57 114.661 31.74V36H116.341V31.365C116.341 29.535 115.186 28.47 113.311 28.47C111.586 28.47 110.626 29.235 110.221 30.57H110.206L110.266 28.59H108.586V36ZM121.246 36.09C121.861 36.09 122.371 35.985 122.596 35.91V34.575C122.386 34.635 121.906 34.71 121.486 34.71C120.466 34.71 120.106 34.23 120.106 33.27V29.955H122.656V28.59H120.106V26.91H118.711L118.636 28.02C118.591 28.44 118.486 28.59 118.201 28.59H117.256V29.955H118.426V33.36C118.426 34.995 119.221 36.09 121.246 36.09ZM127.046 36.12C129.416 36.12 130.676 35.235 130.676 33.735C130.676 33.135 130.391 32.565 129.896 32.295C129.371 31.995 128.771 31.89 127.721 31.785C126.821 31.695 126.116 31.62 125.756 31.5C125.321 31.35 125.246 31.05 125.246 30.735C125.246 30.105 125.906 29.685 127.076 29.685C128.306 29.685 128.831 30.15 128.846 31.11H130.361C130.361 29.43 129.341 28.47 127.031 28.47C125.021 28.47 123.581 29.37 123.581 30.855C123.581 31.425 123.821 31.965 124.226 32.265C124.676 32.595 125.456 32.745 126.611 32.85C127.436 32.925 128.141 33 128.501 33.135C128.891 33.27 128.996 33.525 128.996 33.81C128.996 34.485 128.396 34.905 127.031 34.905C125.591 34.905 125.096 34.38 125.096 33.525H123.581C123.581 34.98 124.496 36.12 127.046 36.12ZM137.458 38.205H138.748C137.488 36.705 136.498 34.35 136.498 31.74C136.498 29.13 137.488 26.625 138.748 25.125H137.473C136.138 26.58 135.208 29.01 135.208 31.74C135.208 34.485 136.123 36.765 137.458 38.205ZM143.375 36.135C146.015 36.135 147.35 34.125 147.35 31.02C147.35 27.915 145.955 25.995 143.375 25.995C140.795 25.995 139.4 27.915 139.4 31.02C139.4 34.125 140.735 36.135 143.375 36.135ZM143.375 34.665C141.89 34.665 141.14 33.3 141.14 31.02C141.14 28.785 141.92 27.465 143.375 27.465C144.83 27.465 145.61 28.785 145.61 31.02C145.61 33.3 144.845 34.665 143.375 34.665ZM147.987 38.205H149.277C150.612 36.765 151.542 34.485 151.542 31.74C151.542 29.01 150.597 26.58 149.262 25.125H147.987C149.247 26.625 150.252 29.13 150.252 31.74C150.252 34.35 149.247 36.705 147.987 38.205Z" fill="white"/>
<g filter="url(#filter0_d_2_2)">
<rect x="20" y="126" width="263" height="56" rx="28" stroke="#E29500" stroke-opacity="0.5"/>
</g>
<path opacity="0.5" d="M125.697 158.15C128.352 158.15 130.017 156.65 130.017 154.28V148.13H128.412V154.25C128.412 155.75 127.392 156.605 125.772 156.605C124.167 156.605 123.132 155.75 123.132 154.25V148.13H121.347V154.28C121.347 156.65 123.027 158.15 125.697 158.15ZM131.761 158H133.441V154.415C133.441 152.795 134.371 151.91 135.841 151.91C137.176 151.91 137.836 152.57 137.836 153.74V158H139.516V153.365C139.516 151.535 138.361 150.47 136.486 150.47C134.761 150.47 133.801 151.235 133.396 152.57H133.381L133.441 150.59H131.761V158ZM144.361 158.12C146.731 158.12 147.991 157.235 147.991 155.735C147.991 155.135 147.706 154.565 147.211 154.295C146.686 153.995 146.086 153.89 145.036 153.785C144.136 153.695 143.431 153.62 143.071 153.5C142.636 153.35 142.561 153.05 142.561 152.735C142.561 152.105 143.221 151.685 144.391 151.685C145.621 151.685 146.146 152.15 146.161 153.11H147.676C147.676 151.43 146.656 150.47 144.346 150.47C142.336 150.47 140.896 151.37 140.896 152.855C140.896 153.425 141.136 153.965 141.541 154.265C141.991 154.595 142.771 154.745 143.926 154.85C144.751 154.925 145.456 155 145.816 155.135C146.206 155.27 146.311 155.525 146.311 155.81C146.311 156.485 145.711 156.905 144.346 156.905C142.906 156.905 142.411 156.38 142.411 155.525H140.896C140.896 156.98 141.811 158.12 144.361 158.12ZM152.741 158.09C153.356 158.09 153.866 157.985 154.091 157.91V156.575C153.881 156.635 153.401 156.71 152.981 156.71C151.961 156.71 151.601 156.23 151.601 155.27V151.955H154.151V150.59H151.601V148.91H150.206L150.131 150.02C150.086 150.44 149.981 150.59 149.696 150.59H148.751V151.955H149.921V155.36C149.921 156.995 150.716 158.09 152.741 158.09ZM157.896 158.12C159.531 158.12 160.416 157.46 160.656 156.365H160.671C160.671 156.965 160.626 157.64 160.596 158H162.276V153.485C162.276 151.535 160.956 150.47 158.706 150.47C156.591 150.47 155.301 151.355 155.301 152.84C155.301 152.975 155.316 153.17 155.331 153.275H156.876C156.861 153.155 156.861 153.035 156.861 152.99C156.861 152.165 157.506 151.73 158.646 151.73C159.951 151.73 160.596 152.225 160.596 153.335V153.86H157.851C155.871 153.86 155.076 154.745 155.076 155.87C155.076 157.31 156.201 158.12 157.896 158.12ZM158.241 156.86C157.221 156.86 156.621 156.47 156.621 155.795C156.621 155.21 157.041 154.88 158.001 154.88H160.596V155.015C160.596 156.155 159.696 156.86 158.241 156.86ZM163.93 158H165.61V156.245L167.095 154.88L169.705 158H171.985L168.325 153.815L171.79 150.59H169.615L165.625 154.475H165.61V147.605H163.93V158ZM179.562 154.025C179.562 151.715 178.227 150.47 176.127 150.47C173.787 150.47 172.317 151.955 172.317 154.355C172.317 156.68 173.787 158.12 176.127 158.12C178.152 158.12 179.502 157.115 179.562 155.465H178.047C177.972 156.335 177.237 156.815 176.157 156.815C174.897 156.815 174.102 156.05 174.012 154.625H179.562V154.025ZM178.047 153.605H174.057C174.252 152.375 174.987 151.775 176.142 151.775C177.357 151.775 178.047 152.39 178.047 153.5V153.605Z" fill="white"/>
<defs>
<filter id="filter0_d_2_2" x="3.5" y="117.5" width="296" height="89" filterUnits="userSpaceOnUse" color-interpolation-filters="sRGB">
<feFlood flood-opacity="0" result="BackgroundImageFix"/>
<feColorMatrix in="SourceAlpha" type="matrix" values="0 0 0 0 0 0 0 0 0 0 0 0 0 0 0 0 0 0 127 0" result="hardAlpha"/>
<feOffset dy="8"/>
<feGaussianBlur stdDeviation="8"/>
<feColorMatrix type="matrix" values="0 0 0 0 0.0666667 0 0 0 0 0.2 0 0 0 0 0.333333 0 0 0 0.08 0"/>
<feBlend mode="normal" in2="BackgroundImageFix" result="effect1_dropShadow_2_2"/>
<feBlend mode="normal" in="SourceGraphic" in2="effect1_dropShadow_2_2" result="shape"/>
</filter>
</defs>
</svg>
